PathFileType	4	(X/Y/Z)	/Users/itak/Documents/Research/Walk-IL/dataset/trc/00366_00011.trc
DataRate	CameraRate	NumFrames	NumMarkers	Units	OrigDataRate	OrigDataStartFrame	OrigNumFrames
100.000000	100.000000	4	56	mm	100.000000	196	392
Frame#	Time	RPSI			LPSI			L3			STRN			T10			C7			CLAV			RBAK			LBAK			LSHO			LUPA			LAEL			LAOL			LWPS			LFRA			LIFD			LHPS			LHTS			RSHO			RUPA			RAEL			RAOL			RWTS			RWPS			RFRA			RIFD			RHTS			RHPS			RBHD			LFHD			RFHD			LBHD			LHIP			RHIP			RASI			LASI			LKNE			LTHI			LANK			LTIP			LTOE			LMT1			LMT5			LHEE			RKNE			RTHI			RANK			RTIP			RTOE			RMT1			RMT5			RHEE			LWTS			*53			*54			*55			
		X1	Y1	Z1	X2	Y2	Z2	X3	Y3	Z3	X4	Y4	Z4	X5	Y5	Z5	X6	Y6	Z6	X7	Y7	Z7	X8	Y8	Z8	X9	Y9	Z9	X10	Y10	Z10	X11	Y11	Z11	X12	Y12	Z12	X13	Y13	Z13	X14	Y14	Z14	X15	Y15	Z15	X16	Y16	Z16	X17	Y17	Z17	X18	Y18	Z18	X19	Y19	Z19	X20	Y20	Z20	X21	Y21	Z21	X22	Y22	Z22	X23	Y23	Z23	X24	Y24	Z24	X25	Y25	Z25	X26	Y26	Z26	X27	Y27	Z27	X28	Y28	Z28	X29	Y29	Z29	X30	Y30	Z30	X31	Y31	Z31	X32	Y32	Z32	X33	Y33	Z33	X34	Y34	Z34	X35	Y35	Z35	X36	Y36	Z36	X37	Y37	Z37	X38	Y38	Z38	X39	Y39	Z39	X40	Y40	Z40	X41	Y41	Z41	X42	Y42	Z42	X43	Y43	Z43	X44	Y44	Z44	X45	Y45	Z45	X46	Y46	Z46	X47	Y47	Z47	X48	Y48	Z48	X49	Y49	Z49	X50	Y50	Z50	X51	Y51	Z51	X52	Y52	Z52	X53	Y53	Z53	X54	Y54	Z54	X55	Y55	Z55	X56	Y56	Z56	

197	1.96	-222.4270629882812	958.54150390625	58.9821891784668	-109.2186965942383	971.4943237304688	-4.319125175476074	-161.4538421630859	1031.804809570312	20.79296493530273	-43.57287979125977	1203.446044921875	236.6090087890625	-143.2927093505859	1151.259887695312	12.51237869262695	-96.16771697998047	1394.578979492188	56.39646530151367	-50.14127349853516	1330.03369140625	199.9983673095703	-181.9959259033203	1260.069580078125	31.18582344055176	-7.042382717132568	1355.206176757812	7.279632568359375	74.05880737304688	1370.064453125	68.73690795898438	141.5791320800781	1258.001098632812	26.63379287719727	209.9755096435547	1065.975952148438	39.79821014404297	136.03662109375	1031.850952148438	13.50942134857178	306.4286499023438	834.3486328125	90.70735931396484	248.0289154052734	968.0963134765625	53.16093826293945	324.1438903808594	683.2655029296875	165.6077575683594	317.5560607910156	765.815185546875	93.67137145996094	322.0566711425781	770.4845581054688	158.2890014648438	-228.6235504150391	1385.946166992188	165.1507568359375	-298.14306640625	1329.744018554688	171.094970703125	-369.3168334960938	1072.6005859375	152.0949401855469	-294.8553161621094	1060.244384765625	95.04327392578125	-334.5615844726562	827.1712036132812	223.2558746337891	-409.0242004394531	825.8748779296875	204.0141143798828	-383.1826477050781	1004.295288085938	171.4771118164062	-376.3548278808594	656.3680419921875	221.1227111816406	-360.3445739746094	724.850341796875	242.4778594970703	-417.8522033691406	741.7648315429688	207.3656921386719	-138.9207305908203	1601.135131835938	160.8291625976562	27.32070732116699	1576.937133789062	282.67529296875	-70.54802703857422	1579.566040039062	306.5887756347656	-7.896267414093018	1598.0546875	100.717643737793	26.63473129272461	917.5036010742188	13.20148754119873	-269.0830993652344	906.4705200195312	186.7005615234375	-176.580078125	937.930908203125	249.8031768798828	41.0185661315918	939.253173828125	150.9014282226562	54.41744232177734	459.9912109375	40.03552627563477	59.3968620300293	600.10546875	43.0989875793457	-21.12077713012695	46.37084579467773	-71.759765625	31.53791618347168	244.8861846923828	-21.1793327331543	75.78177642822266	38.03359222412109	120.3261642456055	-2.676848649978638	25.82405662536621	97.80475616455078	72.50489044189453	37.55031204223633	11.03446960449219	-93.70426177978516	42.44265365600586	-48.97421646118164	-120.6008987426758	486.3690185546875	351.8056335449219	-194.8902130126953	725.2933959960938	305.1109008789062	-173.7665710449219	147.77197265625	104.2089309692383	-117.2755889892578	372.1901550292969	305.8480834960938	-61.48732757568359	54.62919235229492	236.3876495361328	-43.97947311401367	74.49943542480469	173.1211395263672	-161.1062927246094	86.01454925537109	185.5774688720703	-145.5897216796875	176.4571838378906	47.7371711730957	283.2518615722656	842.4994506835938	156.1337585449219	nan	nan	nan	nan	nan	nan	nan	nan	nan	
198	1.97	-216.8539886474609	958.5695190429688	62.89031219482422	-103.1996536254883	971.4535522460938	0.5382278561592102	-155.289794921875	1031.820556640625	25.30215263366699	-39.35970306396484	1202.975708007812	242.3150482177734	-136.5985565185547	1151.267700195312	17.26931571960449	-89.71943664550781	1394.302490234375	61.90832901000977	-45.56429672241211	1329.74853515625	206.0550842285156	-175.0558319091797	1259.769165039062	35.43906402587891	0.0330696739256382	1355.010986328125	13.8875207901001	80.16761779785156	1370.076416015625	76.41501617431641	148.9859466552734	1258.537719726562	35.49345779418945	220.2917327880859	1067.80517578125	50.9921875	147.1179504394531	1032.182373046875	24.70846748352051	320.6567993164062	838.9562377929688	105.0225143432617	260.1020202636719	970.9451293945312	65.68309020996094	342.0503845214844	689.4833984375	181.9927062988281	333.427734375	770.816162109375	108.8538360595703	337.8587951660156	776.5242919921875	173.4196166992188	-223.5802917480469	1385.598388671875	168.6683807373047	-293.5032348632812	1329.971313476562	173.04833984375	-366.6618957519531	1073.886840820312	149.4844360351562	-290.4315795898438	1061.122314453125	94.65915679931641	-335.7732543945312	827.8897705078125	220.6393432617188	-409.6172790527344	827.0327758789062	198.8656616210938	-381.6163940429688	1005.535888671875	167.9834594726562	-378.480712890625	657.4260864257812	217.0995178222656	-362.8335876464844	725.912353515625	238.9457855224609	-418.9287414550781	743.0089721679688	201.9264526367188	-133.9949951171875	1600.8330078125	166.1038513183594	30.73769378662109	1576.576904296875	289.9293823242188	-67.37641143798828	1579.186401367188	312.6539611816406	-2.22085165977478	1597.785888671875	107.5221176147461	32.33355331420898	916.9580688476562	18.84756278991699	-264.4937744140625	906.8617553710938	190.5350494384766	-172.2057189941406	937.86279296875	254.0873718261719	44.66748809814453	937.4479370117188	155.03076171875	56.65706634521484	459.6107177734375	41.62770843505859	62.39106369018555	599.57470703125	46.13892364501953	-21.0330924987793	46.51865768432617	-71.75626373291016	32.45329666137695	244.8858642578125	-20.52562141418457	75.69686889648438	38.02970886230469	120.2983779907227	-2.663894891738892	25.82395935058594	97.80564117431641	72.51829528808594	37.47457122802734	11.04031658172607	-93.63533782958984	42.78959655761719	-48.95561218261719	-115.8728485107422	487.4862365722656	358.7058410644531	-191.2535247802734	726.7071533203125	310.602294921875	-155.5290222167969	138.386474609375	122.5220489501953	-109.4783706665039	371.6737976074219	316.4417724609375	-44.80950927734375	54.30120468139648	262.1358642578125	-25.86126327514648	71.53165435791016	198.2748413085938	-143.4674072265625	80.73257446289062	206.9844665527344	-126.372428894043	165.2606964111328	65.61848449707031	297.4007263183594	847.4946899414062	170.2554931640625	nan	nan	nan	nan	nan	nan	nan	nan	nan	
199	1.98	-211.3522033691406	958.4912719726562	66.94808959960938	-97.28851318359375	971.3187866210938	5.512752532958984	-149.2229614257812	1031.698852539062	29.97605133056641	-35.17155075073242	1202.381591796875	248.1338348388672	-130.0771179199219	1151.118286132812	22.19272041320801	-83.46340942382812	1393.902587890625	67.55075073242188	-41.07223510742188	1329.321044921875	212.1899719238281	-168.27001953125	1259.35498046875	39.91444778442383	6.864716529846191	1354.683715820312	20.56169509887695	86.08928680419922	1369.93408203125	84.08019256591797	156.1164245605469	1258.911254882812	44.27473068237305	230.218505859375	1069.486450195312	62.14334869384766	157.8343505859375	1032.419311523438	35.90334701538086	334.2733459472656	843.4908447265625	119.4498291015625	271.6799621582031	973.6658325195312	78.18888854980469	359.1785278320312	695.8593139648438	198.6869201660156	348.6311645507812	775.7716674804688	124.2513427734375	352.90625	782.6271362304688	188.7309265136719	-218.6145629882812	1385.118286132812	172.4317169189453	-288.8619689941406	1330.037963867188	175.3033294677734	-363.6954650878906	1075.025024414062	147.201171875	-285.81884765625	1061.85302734375	94.61519622802734	-336.7188415527344	828.4606323242188	218.1023254394531	-409.9046630859375	828.11572265625	193.8531951904297	-379.7491760253906	1006.667358398438	164.7496795654297	-380.3883361816406	658.384521484375	213.0490264892578	-365.0888366699219	726.8168334960938	235.3916473388672	-419.7261657714844	744.1785278320312	196.5598754882812	-129.1940765380859	1600.391723632812	171.4649047851562	34.07814407348633	1576.129150390625	297.1560974121094	-64.27146911621094	1578.710815429688	318.751220703125	3.28047776222229	1597.410278320312	114.3487701416016	37.97486114501953	916.3439331054688	24.58572006225586	-259.9628601074219	907.0794677734375	194.4512023925781	-167.9636993408203	937.6387939453125	258.482177734375	47.86697769165039	935.1940307617188	158.9331359863281	58.88380813598633	459.2064208984375	43.35678482055664	65.40093231201172	598.997314453125	49.33853530883789	-20.95886993408203	46.68042373657227	-71.73851776123047	33.34483337402344	244.8600616455078	-19.78880500793457	75.62213897705078	38.03484344482422	120.2798919677734	-2.649435997009277	25.83313751220703	97.81201934814453	72.52466583251953	37.41056060791016	11.06048965454102	-93.55218505859375	43.12508392333984	-48.93028259277344	-111.4259567260742	488.1449584960938	365.1405639648438	-187.8999481201172	727.714111328125	315.9113159179688	-137.8352966308594	129.0056304931641	141.8806457519531	-102.1181182861328	370.9297790527344	327.0073547363281	-29.08429718017578	54.19267654418945	288.4474487304688	-8.633392333984375	68.74142456054688	224.1490783691406	-126.5155334472656	75.55097198486328	229.1593475341797	-107.6521835327148	153.9958190917969	84.61283111572266	310.8888854980469	852.5341186523438	184.4494934082031	nan	nan	nan	nan	nan	nan	nan	nan	nan	
200	1.99	-205.9264373779297	958.3236083984375	71.18550872802734	-91.50089263916016	971.1044921875	10.61955070495605	-143.2725219726562	1031.453857421875	34.82200241088867	-31.02987289428711	1201.681396484375	254.0894470214844	-123.7092819213867	1150.826293945312	27.27901458740234	-77.39385223388672	1393.390258789062	73.32420349121094	-36.66883850097656	1328.750122070312	218.4130859375	-161.6621856689453	1258.842529296875	44.59352874755859	13.46997928619385	1354.233520507812	27.30058670043945	91.82717132568359	1369.642822265625	91.74650573730469	162.9781951904297	1259.125122070312	52.98543930053711	239.7613830566406	1071.021240234375	73.21770477294922	168.1667785644531	1032.5478515625	47.09970092773438	347.2640075683594	847.9238891601562	133.9495086669922	282.7525329589844	976.2322387695312	90.64414978027344	375.4791259765625	702.3655395507812	215.6514739990234	363.1355590820312	780.6580200195312	139.8302459716797	367.1855163574219	788.7650756835938	204.1801605224609	-213.7359771728516	1384.514038085938	176.4378204345703	-284.2285766601562	1329.945678710938	177.8678436279297	-360.40283203125	1076.003540039062	145.2884979248047	-281.0649108886719	1062.434814453125	94.91408538818359	-337.38671875	828.8526000976562	215.6124725341797	-409.8833923339844	829.1259155273438	189.0129852294922	-377.5799865722656	1007.682373046875	161.8183746337891	-382.0773620605469	659.2265014648438	208.9275054931641	-367.1090698242188	727.5569458007812	231.8403472900391	-420.2597045898438	745.267822265625	191.2645111083984	-124.5139923095703	1599.808959960938	176.9122009277344	37.34611892700195	1575.602294921875	304.3633422851562	-61.22907638549805	1578.144287109375	324.8851623535156	8.611255645751953	1596.927612304688	121.2018661499023	43.530517578125	915.6688232421875	30.42059326171875	-255.4860076904297	907.1386108398438	198.4867095947266	-163.8438415527344	937.268798828125	263.0037536621094	50.84259033203125	932.7127075195312	162.9028625488281	61.06639099121094	458.7926330566406	45.23826217651367	68.42797088623047	598.3706665039062	52.70975494384766	-20.89970588684082	46.86044311523438	-71.69835662841797	34.21202850341797	244.8032836914062	-18.96159362792969	75.56397247314453	38.03664016723633	120.277214050293	-2.634963512420654	25.84696960449219	97.82421875	72.53012847900391	37.37548446655273	11.09294033050537	-93.45473480224609	43.4524040222168	-48.89238357543945	-107.2279357910156	488.3164672851562	371.1305847167969	-184.7952575683594	728.30029296875	321.0299987792969	-120.7279739379883	119.7048645019531	162.2664642333984	-95.15178680419922	369.9322509765625	337.5307312011719	-14.19736957550049	54.39234161376953	315.1824645996094	7.75216817855835	66.23444366455078	250.6409606933594	-110.2399063110352	70.54059600830078	252.0964050292969	-89.51557159423828	142.748779296875	104.6973571777344	323.7077331542969	857.591552734375	198.6852569580078	nan	nan	nan	nan	nan	nan	nan	nan	nan	
